<?xml version="1.0" standalone="no"?>
<!DOCTYPE svg PUBLIC "-//W3C//DTD SVG 20010904//EN"
 "http://www.w3.org/TR/2001/REC-SVG-20010904/DTD/svg10.dtd">
<svg version="1.0" xmlns="http://www.w3.org/2000/svg"
 width="656.000000pt" height="656.000000pt" viewBox="0 0 656.000000 656.000000"
 preserveAspectRatio="xMidYMid meet">
<metadata>
Created by potrace 1.14, written by Peter Selinger 2001-2017
</metadata>
<g transform="translate(0.000000,656.000000) scale(0.100000,-0.100000)"
fill="#000000" stroke="none">
<path d="M2982 6528 c-5 -18 -8 -82 -7 -141 2 -101 1 -108 -19 -119 -79 -42
-222 -175 -297 -275 -22 -29 -42 -53 -45 -53 -3 0 -15 5 -27 12 -12 7 -27 13
-34 14 -18 3 -50 -38 -60 -76 l-9 -35 -26 40 c-33 52 -77 95 -96 95 -24 0 -51
-30 -45 -48 3 -10 47 -102 98 -207 51 -104 95 -208 99 -230 10 -74 47 -187
136 -420 82 -212 113 -312 126 -402 4 -30 3 -31 -30 -29 -35 2 -60 30 -281
311 -16 21 -35 43 -40 49 -6 6 -62 76 -125 156 -63 80 -119 150 -125 156 -5 6
-21 26 -35 44 -14 18 -29 38 -35 44 -5 6 -28 33 -49 60 -49 61 -74 84 -110
103 -87 45 -162 23 -150 -45 6 -30 117 -247 142 -274 8 -10 11 -18 7 -18 -4 0
-1 -8 7 -17 8 -10 29 -43 45 -73 16 -30 45 -82 64 -115 l34 -60 -35 23 c-19
12 -55 32 -80 43 -25 12 -57 27 -73 34 -80 39 -229 45 -297 12 -74 -36 -128
-103 -134 -166 -2 -23 -5 -42 -7 -42 -2 0 -17 4 -32 10 -41 16 -54 14 -71 -10
-13 -19 -13 -26 -1 -48 12 -24 108 -110 215 -192 57 -43 53 -40 134 -134 38
-44 91 -107 120 -139 28 -33 57 -69 65 -80 8 -12 17 -23 20 -26 4 -3 31 -34
61 -70 30 -36 57 -67 60 -70 3 -3 27 -30 52 -61 36 -42 45 -58 36 -67 -7 -7
-15 -12 -19 -12 -5 0 -126 58 -271 129 -338 166 -564 262 -827 351 -69 23
-136 43 -150 45 -14 2 -30 4 -36 5 -40 9 -76 -18 -68 -50 3 -10 26 -36 52 -56
25 -21 51 -42 56 -48 6 -6 33 -29 60 -51 28 -21 52 -42 55 -45 3 -3 28 -24 55
-45 28 -22 55 -45 60 -51 6 -6 27 -23 47 -39 44 -32 50 -49 13 -35 -49 19
-141 32 -245 35 -99 3 -110 2 -201 -31 -94 -35 -96 -36 -129 -92 -44 -76 -47
-156 -8 -218 23 -36 116 -114 136 -114 4 0 12 -8 19 -19 6 -10 50 -42 97 -71
81 -50 129 -89 110 -91 -110 -10 -166 -45 -148 -93 6 -17 46 -35 89 -40 17 -3
59 -9 95 -15 36 -6 81 -12 100 -15 19 -3 69 -10 110 -16 41 -6 92 -13 112 -16
21 -2 50 -6 65 -9 16 -3 44 -8 63 -11 19 -3 38 -11 42 -18 15 -22 8 -63 -15
-84 -20 -19 -137 -67 -137 -57 0 3 -12 0 -26 -5 -14 -6 -67 -12 -117 -15 -51
-3 -121 -8 -157 -11 -36 -3 -96 -7 -135 -9 -38 -2 -108 -6 -155 -10 -47 -3
-116 -8 -155 -11 -38 -2 -99 -6 -135 -9 -272 -17 -298 -20 -322 -42 -41 -36
-8 -72 65 -73 26 0 47 -3 47 -7 0 -5 12 -16 26 -27 25 -18 41 -23 139 -47 100
-25 122 -30 145 -34 51 -11 115 -32 112 -38 -38 -79 -49 -111 -55 -152 -2 -12
-6 -25 -9 -30 -7 -14 -3 -102 6 -144 9 -38 39 -95 62 -118 12 -13 19 -45 12
-57 -8 -12 50 -57 81 -63 20 -4 38 -8 41 -8 115 -23 130 -49 76 -129 -33 -49
-33 -73 -1 -88 23 -10 56 4 344 150 175 89 326 162 333 162 15 0 38 -17 87
-63 50 -46 71 -151 47 -232 -11 -35 -37 -66 -136 -162 -381 -367 -598 -589
-604 -620 -10 -43 -1 -68 29 -81 41 -19 133 38 453 277 15 12 33 26 40 31 8 8
12 7 13 -2 1 -24 7 -50 13 -55 3 -3 -12 -39 -33 -79 -69 -129 -82 -203 -41
-236 12 -10 30 -18 39 -18 21 0 112 43 131 61 8 8 35 30 60 49 25 19 47 38 48
42 5 10 62 10 62 1 0 -5 -11 -30 -25 -58 -61 -124 -7 -171 107 -94 33 23 61
39 64 37 5 -6 -32 -151 -52 -202 -18 -47 -6 -71 29 -54 17 8 252 345 312 446
6 9 21 35 35 57 33 53 40 65 99 166 28 48 61 94 74 102 12 8 35 26 51 40 81
70 215 103 275 66 36 -22 59 -67 54 -105 -2 -16 -5 -35 -5 -41 -1 -7 -5 -13
-10 -13 -4 0 -8 -5 -8 -11 0 -5 -11 -35 -25 -65 -14 -30 -25 -56 -25 -59 0 -2
-15 -36 -34 -77 -18 -40 -64 -143 -101 -228 -37 -85 -81 -184 -97 -220 -106
-232 -121 -274 -122 -322 -1 -86 59 -116 109 -55 14 17 33 40 41 50 8 9 14 19
14 22 0 8 154 240 162 243 5 2 8 9 8 15 0 7 7 20 15 30 13 18 16 15 41 -35 24
-46 27 -62 24 -118 -10 -144 -6 -229 11 -245 23 -23 72 -22 97 3 19 19 82 143
82 162 0 4 26 1 57 -7 38 -10 87 -13 148 -10 85 4 95 7 141 39 50 35 50 35 52
12 1 -13 8 -40 16 -59 12 -28 20 -35 43 -35 33 0 46 8 60 35 13 25 32 106 48
200 3 17 7 44 10 60 3 17 7 39 9 50 3 18 66 193 119 325 12 30 26 58 32 62 5
4 7 8 3 8 -9 0 44 101 77 144 l28 37 74 -178 75 -178 -6 -115 c-4 -63 -8 -153
-11 -200 -15 -257 -20 -564 -11 -635 9 -72 28 -145 38 -145 4 0 8 -6 8 -13 0
-20 58 -50 84 -43 13 3 29 18 35 34 11 26 14 37 25 112 3 19 8 46 11 60 3 14
7 36 9 50 2 14 9 52 15 85 6 33 13 72 16 88 3 15 7 39 10 55 3 15 8 43 11 62
5 33 24 67 24 43 0 -20 77 -90 126 -114 39 -19 65 -24 124 -24 65 0 85 5 140
32 109 54 169 123 215 249 13 36 19 83 21 184 1 74 -2 140 -7 146 -6 8 -4 14
5 17 8 3 27 28 43 56 15 28 33 51 38 51 6 0 39 -30 74 -66 72 -72 107 -95 134
-85 10 4 17 9 15 12 -2 3 2 12 9 20 19 23 -10 89 -124 277 -12 21 -25 44 -29
52 -10 20 -168 259 -188 285 -9 11 -41 54 -71 95 -31 41 -62 82 -69 91 -7 9
-15 20 -17 25 -5 12 -179 243 -201 268 -23 26 -23 31 8 50 23 16 78 22 114 13
75 -19 175 -77 241 -140 54 -51 230 -212 275 -252 7 -5 40 -34 74 -64 34 -30
71 -63 83 -74 170 -147 284 -261 300 -299 21 -49 37 -59 78 -47 83 23 90 59
35 169 -20 39 -36 73 -36 75 0 1 24 3 53 3 104 0 210 60 256 147 23 44 28 113
10 163 -9 26 -7 35 11 60 43 57 8 100 -170 211 -55 34 -100 69 -100 77 0 8 4
13 8 10 10 -6 206 19 221 29 4 2 20 6 36 9 31 6 45 21 45 49 0 19 -26 32 -81
41 -29 5 -68 12 -166 32 -12 2 -35 9 -50 15 -16 6 -38 13 -51 15 -13 3 -42 11
-65 18 -23 8 -76 24 -117 36 -41 12 -82 25 -90 28 -8 3 -20 6 -27 8 -7 1 -34
9 -60 17 -26 8 -98 29 -160 47 -122 36 -122 36 -128 123 -4 51 28 96 89 126
l49 24 106 -37 c58 -20 113 -39 121 -41 8 -2 92 -29 185 -59 94 -31 188 -61
210 -68 22 -6 45 -14 50 -17 6 -3 15 -6 20 -7 6 -1 82 -23 170 -49 88 -26 167
-48 175 -50 8 -2 64 -17 124 -34 116 -33 161 -38 172 -20 3 6 6 28 6 50 -1 46
-21 71 -82 99 -25 11 -52 25 -60 30 -8 5 -54 28 -102 52 -47 23 -84 46 -81 50
2 5 10 7 16 6 17 -4 99 23 118 39 8 7 20 13 25 13 6 0 36 23 67 51 41 36 67
71 91 122 32 65 35 79 33 147 -3 77 -10 96 -60 162 -44 58 -105 94 -247 144
-10 4 -6 9 15 19 142 66 183 87 205 109 55 55 60 68 37 100 -14 20 -85 25
-172 13 -27 -4 -66 -9 -85 -12 -19 -2 -51 -7 -70 -9 -19 -3 -57 -8 -85 -11
-49 -6 -64 -8 -135 -21 -19 -3 -44 -7 -55 -8 -20 -2 -93 -15 -130 -22 -55 -12
-123 -25 -150 -29 -25 -4 -56 -11 -95 -20 -3 -1 -30 -5 -60 -9 -30 -5 -62 -10
-70 -11 -8 -2 -37 -6 -65 -9 -67 -9 -113 -17 -139 -22 -21 -5 -76 -8 -86 -4
-3 1 -13 3 -22 5 -25 5 -78 44 -79 58 0 7 -2 22 -5 35 -11 58 67 135 205 200
53 25 98 49 99 54 2 4 12 8 22 8 9 0 23 7 30 15 7 8 18 15 24 15 13 0 155 93
202 131 42 35 136 129 168 168 25 31 290 191 317 191 5 0 9 5 9 10 0 6 5 10
10 10 10 0 115 66 136 85 22 21 34 55 34 94 0 32 -5 44 -24 56 -27 18 -50 14
-181 -30 -38 -13 -86 -28 -106 -33 l-36 -10 -8 87 c-4 47 -8 110 -10 140 -2
49 -6 58 -46 96 -24 23 -60 59 -79 80 -85 92 -187 134 -311 130 -43 -2 -79 -1
-79 2 0 2 11 52 24 111 38 163 38 164 40 212 1 42 -1 45 -24 45 -19 0 -36 -17
-80 -81 -30 -45 -67 -96 -83 -115 -15 -19 -31 -39 -35 -44 -21 -29 -108 -130
-114 -133 -5 -2 -8 -10 -8 -18 0 -8 -4 -14 -8 -14 -5 0 -21 -18 -38 -40 -16
-23 -41 -55 -56 -73 -15 -18 -28 -35 -28 -39 0 -22 -193 -106 -261 -115 -34
-4 -37 -3 -44 29 -4 18 -9 40 -11 48 -2 8 -4 38 -5 65 -1 42 8 70 55 168 31
64 56 120 56 123 0 3 9 24 19 47 19 43 141 354 145 372 2 6 8 23 14 38 17 41
15 71 -6 90 -41 38 -77 17 -168 -95 -76 -94 -93 -112 -98 -107 -2 2 -14 24
-26 48 -27 54 -69 98 -119 124 -20 11 -37 19 -38 18 -2 0 -6 -1 -10 0 -46 7
-122 -5 -168 -26 -61 -27 -147 -107 -180 -168 -18 -34 -41 -45 -72 -34 -5 1
-8 61 -8 134 0 110 -3 135 -17 149 -9 9 -21 13 -28 9 -18 -11 -41 -73 -54
-145 -3 -14 -12 -59 -20 -100 -22 -110 -25 -130 -32 -180 -3 -25 -7 -56 -10
-70 -2 -14 -6 -50 -9 -80 -3 -30 -7 -68 -10 -85 -2 -16 -7 -100 -10 -185 -8
-201 -11 -228 -36 -294 -24 -66 -58 -96 -108 -96 -54 0 -62 10 -77 94 -3 16
-24 115 -45 220 -22 105 -42 202 -45 216 -3 14 -10 43 -15 65 -9 36 -17 73
-23 100 -1 6 -5 19 -9 30 -3 11 -8 31 -11 45 -3 14 -13 52 -22 85 -9 33 -17
65 -18 70 -1 6 -10 37 -20 70 -18 59 -20 74 -31 225 -10 140 -19 219 -30 280
-3 14 -8 39 -10 55 -3 17 -12 48 -21 70 -8 22 -17 47 -20 56 -8 24 -55 46 -96
46 -21 0 -40 2 -42 4 -4 4 -14 69 -21 147 -6 55 -19 72 -56 72 -23 0 -30 -6
-37 -32z m978 -1125 c0 -5 -16 -57 -35 -118 l-35 -110 6 80 c4 44 8 89 9 100
1 11 3 28 4 38 1 11 9 17 26 17 14 0 25 -3 25 -7z m-1828 -174 c20 -24 61 -75
92 -114 31 -38 69 -85 86 -103 16 -18 30 -35 30 -37 0 -4 148 -191 201 -252
10 -13 14 -23 9 -23 -19 0 -124 57 -216 118 -77 50 -92 65 -98 92 -6 32 -40
103 -126 265 -24 44 -53 99 -65 122 -12 23 -28 50 -35 60 -18 26 78 -76 122
-128z m3074 -76 c-2 -16 -5 -38 -5 -50 -1 -17 -14 -29 -52 -49 -28 -14 -53
-24 -54 -22 -4 4 23 39 72 96 18 20 33 40 33 45 0 4 2 7 5 7 3 0 4 -12 1 -27z
m-1826 -113 c0 -27 1 -31 11 -59 5 -13 12 -40 15 -60 3 -20 12 -62 19 -94 12
-51 12 -57 -1 -46 -8 6 -12 14 -10 17 3 2 1 12 -4 22 -8 15 -14 43 -40 198 -4
23 -3 42 2 42 4 0 8 -9 8 -20z m2460 -606 c-13 -15 -50 -25 -50 -14 0 11 27
27 46 27 10 0 11 -4 4 -13z m-4668 -130 c24 -9 62 -25 85 -35 24 -10 45 -19
48 -19 3 0 27 -10 53 -21 26 -12 65 -29 87 -39 77 -33 121 -54 254 -117 221
-105 281 -136 276 -142 -19 -19 -294 -15 -326 5 -3 2 -21 6 -39 9 -30 5 -251
74 -258 80 -2 1 -5 15 -8 31 -8 45 -29 72 -132 172 -53 50 -94 92 -90 92 4 0
27 -7 50 -16z m5208 -641 c-1 -20 -32 -45 -91 -73 -35 -17 -72 -35 -81 -40
-10 -6 -23 -10 -29 -10 -7 0 -26 -15 -44 -33 -26 -27 -37 -32 -58 -26 -14 4
-124 5 -244 2 -228 -5 -603 -7 -663 -4 -44 2 -24 17 36 25 22 4 51 9 64 12 14
3 68 12 120 20 52 8 106 17 120 19 14 2 48 7 75 10 28 4 77 10 110 15 33 5 80
12 105 15 25 3 56 8 70 10 14 2 45 7 70 10 25 3 70 10 100 15 30 5 78 12 105
16 28 3 68 9 90 13 61 11 145 13 145 4z m-5245 -166 c11 -6 38 -20 60 -30 22
-11 49 -26 60 -34 19 -13 18 -14 -10 -8 -35 6 -152 18 -177 17 -10 -1 -18 2
-19 6 0 4 -2 23 -4 43 -1 20 -6 42 -10 49 -7 11 18 1 100 -43z m-255 -517 c-1
-3 -26 -20 -58 -38 -55 -32 -79 -35 -142 -17 -3 1 -27 7 -53 15 -70 19 -53 25
92 35 47 4 87 7 88 8 4 5 73 2 73 -3z m4700 -151 c0 -5 -12 -3 -27 3 -44 19
-50 28 -10 16 21 -6 37 -15 37 -19z m90 -12 c16 -6 27 -8 184 -34 55 -9 107
-22 115 -29 9 -7 34 -27 56 -45 32 -25 35 -30 15 -24 -14 5 -45 14 -70 20 -25
7 -106 32 -180 55 -74 23 -150 46 -167 51 -18 6 -33 14 -33 18 0 8 44 1 80
-12z m-226 -418 c77 -27 141 -49 144 -49 2 0 -3 -7 -12 -15 -8 -8 -19 -15 -25
-15 -6 0 -11 -7 -11 -15 0 -8 -2 -15 -5 -15 -8 0 -49 24 -55 32 -9 11 -185
115 -208 123 -12 3 -22 10 -22 15 0 5 12 5 28 -1 15 -6 90 -33 166 -60z
m-4074 -78 c0 -4 -44 -27 -97 -51 -53 -25 -143 -68 -200 -95 -74 -37 -103 -47
-103 -36 0 23 -23 81 -32 81 -4 0 -8 8 -8 17 0 9 3 14 6 11 3 -3 44 3 92 14
48 11 94 21 102 22 9 1 20 5 25 8 10 5 70 18 113 24 13 1 25 4 27 6 7 6 75 5
75 -1z m3178 -443 c78 -117 145 -217 149 -223 4 -5 44 -66 87 -135 44 -69 94
-148 113 -177 18 -28 33 -53 33 -56 0 -2 -10 -3 -22 -3 -30 3 -67 -16 -97 -48
-30 -32 -41 -33 -41 -3 0 13 -4 27 -8 32 -4 6 -16 35 -26 65 -31 90 -126 303
-138 308 -5 2 -8 7 -8 12 0 4 -38 86 -84 182 -86 177 -120 258 -106 258 4 0
71 -96 148 -212z m-3043 -224 c-8 -20 -15 -38 -15 -40 0 -6 -119 -84 -137 -90
-10 -3 23 33 72 80 50 47 91 86 93 86 1 0 -5 -16 -13 -36z m3913 -4 c32 -30
27 -35 -8 -10 -16 12 -30 23 -30 26 0 10 18 2 38 -16z m-3296 -297 c-11 -16
-52 -81 -92 -145 -41 -65 -77 -118 -80 -118 -4 0 -7 11 -7 25 0 42 -22 58 -70
52 -28 -3 -43 -1 -43 7 1 21 38 59 61 63 54 8 159 67 223 126 28 24 30 21 8
-10z m-557 -79 c20 -15 20 -16 -10 -40 -34 -28 -65 -47 -65 -40 0 11 44 96 49
96 4 0 15 -8 26 -16z m1116 -36 c-4 -18 -9 -64 -10 -103 -2 -66 -5 -72 -54
-140 -28 -38 -76 -106 -105 -150 -59 -87 -63 -72 -12 40 17 36 44 95 61 133
17 37 42 90 55 119 13 28 24 56 24 61 0 5 7 15 15 22 8 7 15 21 15 31 0 11 4
19 9 19 5 0 6 -15 2 -32z m1408 -522 c-4 -17 -11 -47 -15 -66 -8 -46 -12 -65
-14 -65 -1 0 -3 -9 -4 -20 -13 -88 -39 -202 -50 -212 -6 -6 -1 145 10 310 3
56 8 122 9 147 1 25 3 59 4 75 1 24 8 14 35 -54 27 -67 32 -90 25 -115z"/>
</g>
</svg>
