<svg xmlns="http://www.w3.org/2000/svg" viewBox="0 0 80.07 82.17">
  <g>
    <path d="M32.3 60.46c-.79-.16-1.77.18-2.48.67-2.12 1.44-3.63 3.68-5.84 4.98-2.21 1.31-5.72 1.11-6.61-1.29-1.26-3.42 3.98-7.11 2.13-10.25-1.08-1.83-3.74-1.75-5.79-1.21s-4.39 1.27-6.16.1c-2.4-1.59-1.65-5.57.56-7.41 2.21-1.84 5.22-2.28 7.98-3.13.42-.13.88-.3 1.09-.68.42-.74-.33-1.6-1.03-2.09a24.26 24.26 0 0 0-6.19-3.1c-1.8-.6-4.04-1.36-4.28-3.25-.27-2.12 2.35-3.45 4.49-3.39 2.68.09 5.19 1.28 7.76 2.06 2.57.78 5.55 1.1 7.78-.41-2.24-2.64-4.48-5.27-6.71-7.91-.92-1.08-1.9-2.39-1.62-3.78.24-1.16 1.36-2 2.54-2.19 1.17-.19 2.37.16 3.45.67 3.53 1.68 6.48 5.15 10.39 5.04-.48-3.37-3.01-7.8-3.49-11.17C29.52 7.49 37.8.94 39.3 3.25c1.87 2.88.77 17.13 2.89 19.87.74.95 2.16 1.82 3.04 1 .3-.28.43-.68.56-1.07.83-2.58 1.67-5.17 2.5-7.75.46-1.42.93-2.87 1.9-4.01s2.53-1.89 3.95-1.45c2.11.65 2.73 3.38 2.48 5.58s-.96 4.5-.14 6.56c3.85-.59 7-4.49 10.85-3.85 2.52.42 4.38 2.88 4.58 5.42.2 2.54-1.02 5.05-2.8 6.87-1.78 1.83-4.07 3.06-6.4 4.11-1.25.56-2.77 1.89-1.93 2.97.24.31.63.47 1.01.6 4.28 1.41 8.98-.09 13.44.52 1.87.26 3.9 1.08 4.62 2.82.87 2.1-.7 4.59-2.8 5.48-2.1.88-4.49.56-6.71.06s-4.46-1.19-6.72-.98c-.87.08-1.82.36-2.25 1.13-.43.78-.12 1.81.48 2.47.6.66 1.44 1.05 2.24 1.46 2.63 1.34 5.08 3.02 7.26 5 .91.82 1.83 1.83 1.87 3.05.03 1.29-1.01 2.45-2.24 2.84-1.23.4-2.59.16-3.79-.31-4-1.56-6.69-5.5-10.65-7.15-.79-.33-1.83-.5-2.38.15-.52.62-.24 1.55.08 2.29 1.59 3.62 3.77 7.01 4.69 10.85.5 2.06.59 4.34-.42 6.21s-3.37 3.1-5.34 2.3c-1.69-.69-2.54-2.54-3.24-4.22-1.22-2.95-2.44-5.89-3.66-8.84-2.57 3.1-2.49 8.2-5.9 10.32-2.26 1.41-5.57.7-7.06-1.5-1.66-2.46-.96-5.75-.07-8.58.25-.8.5-1.74.03-2.44-.23-.34-.56-.53-.94-.61Z" fill="#7b85c1"/>
    <path d="M47.32 42.66c.04.61.32.99.96 1.07.21.03.4.14.59.35l-.99-.06c.17.77.38 1.54-.46 2.07.13.2.2.4.35.5.36.26.71.49.91.93.1.2.51.37.76.36.22-.02.42-.32.62-.5.33.5.28.66-.47 1.29l.48.66c3.11 4.15 6.26 8.27 9.3 12.47 1.23 1.7 2.23 3.56 3.31 5.36.23.38.41.8.51 1.23.05.22-.08.57-.25.72-.14.12-.52.12-.69 0-.37-.24-.68-.57-1-.88-.33-.33-.65-.67-1.05-1.09-.21.34-.37.56-.5.79-.49.9-.67.97-1.74.67-.11.69-.22 1.38-.34 2.06-.03.19-.07.39-.12.57-.15.53-.35 1.05-.98 1.13-.64.08-.95-.38-1.22-.86-.12-.22-.22-.45-.39-.81-.1.29-.17.45-.21.61-.18.85-.33 1.71-.54 2.55-.14.54-.32 1.11-1.01 1.2-.51.06-.89-.3-1.21-1.1-.1-.26-.18-.52-.34-.99-.13.41-.22.62-.26.85-.43 2.4-.86 4.8-1.29 7.19-.03.17-.03.34-.08.5-.2.69-.84.89-1.36.39-.27-.26-.51-.63-.58-.99-.17-.79-.32-1.6-.32-2.41.01-2.07.08-4.15.19-6.22.14-2.77.31-5.54.49-8.31.28-4.47.56-8.95.86-13.42.03-.38.18-.75.29-1.22-.16-.49-.56-.74-1.17-.89-.77-.2-1.49-.61-2.32-.96-.05.11-.24.31-.22.47.12.72-.14 1.2-.8 1.44-.2 2.34-.39 4.63-.58 6.92-.42 5.25-.79 10.5-1.69 15.7-.1.55-.2 1.1-.33 1.65-.05.24-.13.49-.24.71-.14.29-.38.5-.73.46-.35-.04-.56-.27-.63-.59-.09-.4-.12-.81-.19-1.35-.27.34-.46.59-.67.83-.33.39-.73.63-1.25.5-.49-.12-.74-.51-.82-.97-.09-.55-.13-1.11-.16-1.67-.02-.41 0-.81 0-1.22l-.21-.06c-.13.26-.28.51-.4.77-.56 1.22-1.11 2.45-1.68 3.67-.18.38-.37.76-.59 1.11-.22.35-.52.6-.98.5-.38-.08-.64-.42-.67-.96-.02-.39 0-.78.03-1.17.1-1.26.21-2.51.3-3.77.01-.15-.02-.31-.05-.65-.29.37-.49.59-.65.84-.89 1.36-1.77 2.73-2.66 4.09-.26.4-.55.78-.86 1.14-.31.36-.92.23-1.1-.33-.23-.71-.04-1.27.24-1.91 2.54-5.71 5.03-11.44 7.59-17.14 1.25-2.79 2.61-5.52 3.93-8.28.11-.23.22-.45.34-.71-.19-.17-.43-.3-.55-.5-.14-.24-.27-.55-.25-.82.05-.65.08-.65-.55-.99-.04-.02-.05-.09-.11-.18h.83l.22-1.03c-.91-.09-1.78-.09-2.61-.26-.85-.18-1.69-.3-2.55-.34-.11.68-.11.72.43.92.36.13.74.22 1.18.35-.62.41-1.19.35-1.72.07-.2-.11-.38-.41-.43-.65-.18-.88-.15-.87-.99-.62-.26.08-.56 0-.83.04-5.63.7-11.3.7-16.95.97-2.74.13-5.48.31-8.22.48-.39.02-.77.09-1.16.23.91.24 1.82.47 2.73.71.43.12.86.25 1.28.41.85.33 1.56.8 1.6 1.93 4.93-1.38 9.86-2.49 14.94-2.87-.22.08-.44.17-.67.24-4.47 1.29-8.97 2.46-13.55 3.28-1.06.19-1.97.56-2.83 1.18l1.06 1.01c3.07-.86 6.12-1.69 9.16-2.56 3.42-.98 6.83-2 10.24-3 .27-.08.53-.16.87-.11-.35.21-.69.45-1.06.64-2.7 1.4-5.53 2.46-8.46 3.25-3.33.89-6.68 1.67-10.03 2.47-.45.11-.81.26-1.1.66-.27.37-.69.64-1.12 1.02 1.09.33 1.9.88 1.89 2.13 6.19-3.02 12.44-5.67 18.68-8.35l.09.18c-.28.15-.55.31-.83.46-4.24 2.12-8.48 4.23-12.71 6.35-1.85.93-3.69 1.89-5.54 2.83-.25.13-.51.28-.77.31-.21.02-.51-.06-.64-.21-.09-.1-.03-.42.06-.6.12-.25.35-.44.49-.68.32-.52.18-.92-.4-1.11-.37-.12-.77-.15-1.15-.24-.48-.1-.94-.25-1.1-.79-.15-.52.11-.93.47-1.27.26-.25.55-.47.88-.75-.26-.13-.48-.23-.69-.35-.86-.48-1-1.32-.29-2.01.3-.29.67-.5 1.02-.73.28-.18.57-.33 1.02-.58-.53-.17-.88-.3-1.24-.39-1.6-.4-3.21-.77-4.82-1.17-.7-.17-1.44-.25-1.94-.89-.09-.11-.36-.09-.54-.11-.22-.02-.46.03-.66-.04-.16-.06-.37-.24-.38-.38-.01-.18.09-.47.24-.55.26-.15.58-.22.88-.24 3.47-.25 6.93-.48 10.4-.71 6.35-.43 12.72-.47 19.08-.44.3 0 .61 0 .93-.14-.48-.07-.95-.14-1.43-.2-3.26-.36-6.52-.67-9.77-1.09-3.53-.46-7.04-1.02-10.56-1.53-.22-.03-.44-.08-.65-.16-.32-.12-.56-.37-.45-.7.07-.22.32-.47.54-.55.41-.14.86-.16 1.52-.27-.35-.3-.53-.49-.74-.63-.45-.29-.92-.54-1.37-.82-.21-.13-.43-.28-.6-.46-.55-.6-.33-1.32.46-1.55.28-.08.58-.12.99-.2-.75-.41-1.4-.74-2.01-1.11-.35-.22-.71-.47-.97-.79-.55-.66-.32-1.52.52-1.72.67-.16 1.39-.17 2.08-.14 1.23.06 2.46.2 3.69.3.33.03.67 0 1.14 0-.19-.25-.29-.44-.44-.57-.88-.74-1.76-1.47-2.65-2.21-.71-.59-1.42-1.18-2.14-1.76-.26-.21-.46-.45-.31-.79.16-.37.5-.44.85-.36.44.09.87.2 1.3.34 3.99 1.27 7.82 2.93 11.56 4.8 4.28 2.15 8.5 4.43 12.74 6.65.32.17.64.33.93.49l.91-2.18c-.35-.14-.93.12-1.05-.4-.07-.28.08-.62.15-1.05-.16-.09-.42-.25-.68-.39-2.82-1.5-5.67-2.94-8.46-4.5-3.58-2-6.92-4.36-10.05-7.02-.13-.11-.25-.23-.37-.35-.26-.27-.52-.57-.27-.96.26-.4.63-.27.98-.11.33.15.66.32.98.49l2.22 1.2c.27.15.5.27.86.11.24-.11.6-.03.89.03.26.05.51.17.85.15-.25-.29-.5-.57-.74-.87-.46-.57-.91-1.13-1.35-1.72-.18-.24-.34-.51-.48-.79-.19-.37-.26-.76.05-1.1.3-.34.7-.37 1.08-.2.56.25 1.12.52 1.65.82.75.43 1.49.89 2.3 1.38.05-.4-.15-.64-.28-.88-.96-1.71-1.93-3.41-2.89-5.12-.23-.41-.43-.85-.63-1.28-.16-.36-.16-.72.13-1.01.3-.31.63-.18 1.01-.11.91.17 1.45.79 1.98 1.45 3.71 4.64 7.43 9.27 11.12 13.93 1.12 1.4 2.16 2.86 3.25 4.29.19.25.31.62.91.53-.2-.27-.32-.5-.51-.66-.43-.37-.73-.75-.65-1.37.03-.22-.1-.48-.21-.71-3.2-6.58-6.4-13.15-9.6-19.73-.21-.43-.44-.84-.67-1.26-.4-.74-.4-1.11-.01-1.33.37-.21.69-.02 1.16.68.18.28.37.55.63.93l.18-.6c.24-.83.77-.99 1.43-.42.12.1.16.29.24.44l.18-.14c.06-.29.09-.59.19-.87.23-.69.81-.9 1.38-.45.39.31.71.72 1 1.12.49.67.94 1.38 1.59 2.05.03-.22.09-.44.09-.66-.02-1.96-.04-3.92-.08-5.88-.01-.73-.05-1.46-.06-2.18 0-.2 0-.39.03-.59.06-.35.18-.68.6-.69.43 0 .55.32.6.68.1.72.18 1.45.28 2.17.05.36.08.74.24 1.06 1.42 2.82 2.29 5.84 3.13 8.86 1.27 4.57 2.16 9.22 3.03 13.87.21 1.12.41 2.25.62 3.43h.95c.02-.2.06-.39.07-.58.17-3.39.38-6.77.5-10.16.1-2.96.56-5.85 1.18-8.73.09-.41.22-.81.35-1.21.09-.25.26-.5.55-.38.15.07.3.34.3.52.02.78 0 1.57-.01 2.35v.92c1.05-.2 1.49-.27 1.56 1.82.3-.47.54-.87.81-1.24.43-.59.85-1.18 1.33-1.73.34-.39.8-.66 1.35-.43.54.23.7.7.69 1.24 0 .45-.05.89-.09 1.34-.02.29-.05.58.07.95.22-.24.46-.46.67-.71 1.09-1.32 2.18-2.64 3.26-3.96.51-.62.9-.78 1.34-.53.46.26.47.71.13 1.49-.29.66-.5 1.36-.77 2.03-.61 1.53-1.17 3.1-1.88 4.58-2.43 5.05-5.02 10.02-7.84 14.87-.03.05-.03.1-.08.27.24.08.49.15.73.25.23.09.45.22.72.36.26-.35.53-.7.79-1.06 2.99-4.03 5.96-8.08 8.97-12.08 1.18-1.57 2.47-3.05 3.69-4.58.45-.57.83-1.19 1.23-1.79.03-.05.05-.1.08-.15.16-.22.35-.39.63-.26s.29.38.23.65l-.9 4.09c-.02.08-.01.17-.02.38.31-.05.6-.09.88-.13.41-.07.82-.2 1.24-.21.86-.01 1.29.61.98 1.41-.16.41-.43.78-.67 1.16-.18.28-.39.54-.68.93.3-.08.48-.11.64-.17.69-.24 1.36-.53 2.06-.72.65-.18 1.38-.38 1.85.3.49.7 0 1.3-.43 1.81-.64.74-1.35 1.42-2.03 2.13-.19.19-.37.39-.48.72.24-.05.48-.07.71-.14 1.76-.55 3.52-1.11 5.29-1.67.29-.09.58-.21.89-.25.54-.06.85.25.85.79 0 .62-.18 1.14-.77 1.48-.61.34-1.19.75-1.79 1.1-4.03 2.34-8.2 4.39-12.4 6.39-2.81 1.34-5.65 2.6-8.49 3.87-.4.18-.65.38-.67.84-.02.36-.1.71-.17 1.14.32 0 .56.03.8 0 4.22-.55 8.45-1.06 12.67-1.67 2.19-.32 4.34-.84 6.53-1.19 1.93-.32 3.88-.54 5.83-.79.33-.04.67-.05 1.01-.01.67.07.89.5.48 1.04-.28.37-.66.69-1.06.92-.5.3-1.07.49-1.6.73-.17.08-.34.18-.63.34.27.24.48.45.7.63.26.21.57.37.81.6.65.61.55 1.23-.26 1.57-.41.17-.86.24-1.3.34-.16.04-.32.06-.68.12.36.14.54.23.73.29.61.21 1.22.4 1.82.64.28.11.56.27.79.46.55.45.5 1.04-.13 1.34-.42.2-.9.34-1.36.41-1.08.15-2.17.23-3.25.35-.41.04-.81.12-1.28.35.23.17.44.38.7.51 1.42.73 2.85 1.44 4.27 2.16.45.23.9.47 1.36.66.59.25.72.74.74 1.3.01.37-.21.59-.57.58-.27 0-.55-.08-.82-.16-8.48-2.28-16.79-5.06-24.87-8.51-.58-.25-1.17-.46-1.94-.76.18.38.27.54.33.72.15.44.2.9-.18 1.25-.37.35-.83.31-1.27.18-.23-.07-.44-.21-.67-.32v.03c.21-.29.43-.11.68-.06.35.08.76.21.99-.27-.24-.1-.61-.15-.63-.26-.09-.48-.54-.5-.75-.76l-1.3.83.02.02c.15-.29.28-.6.47-.86.32-.46.69-.88 1.02-1.33.41-.58.39-.64-.25-1.07-.24 1.57-1.81 1.75-2.73 2.61l.13.4Zm-6.25-5.06q.47 0 .5-.44l-.51.47.04-.53c-.55.18-1.03.32-1.51.48-.46.15-.92.31-1.41.47.51.62.6.67 1.33.84.2-.23.34-.44.53-.59.33-.25.68-.47 1.03-.71Zm.34-3.07c.09-.69.61-.92 1.29-1.04-.5-.85-.72-1.75-1.36-2.67l-.4 1.75.76.35-.87.17.6 1.43c.04.16.08.32.11.49.21 1.06.94 1.86 1.37 2.81.09.2.42.33.67.41.4.12.81.16 1.23.24-.02-.46-.35-.53-.72-.63-.73-.19-.83-.45-.51-1.15.03-.07.04-.16.07-.25l-.73-.98c.18.01.28 0 .33.03.46.34 1.52.83 2.05.94.05.01.09.05.16.09l-.14.4c.36.3.93.08 1.09.67.75-.94 1.44-1.8 2.12-2.66-.37-.09-.65-.06-.91 0-.76.16-1.53.33-2.29.5-.7.16-1.26-.08-1.73-.58-.13-.14-.24-.31-.37-.46-.45-.53-.97-.5-1.43.07-.06.08-.25.05-.38.08Zm4.64 7.6c-.64.29-.95.28-1.26-.3-.35-.64-.77-.96-1.52-.94-.42.01-.66-.34-.54-.67.19-.5.45-.97 1-1.16.31-.11.51.04.51.39 0 .12-.01.23-.02.4.21-.04.38-.02.48-.09.16-.12.28-.3.42-.45-.16-.12-.31-.29-.49-.35-.23-.08-.48-.07-.7-.09l-.19-.66c-.38.37-.77.37-1.18.38-.53.01-.84.3-.95.77-.11.47.45 1.84.86 2.11l1.59 1.02-.07.17c-.28-.06-.62-.05-.82-.21-.48-.39-.96-.75-1.55-.97-.39-.15-.56-.48-.49-.96.12-.74-.27-1.2-1.1-1.42.23.64.23.77-.26 1.14-.53.4-1.11.75-1.67 1.13-.24.17-.47.35-.73.53.38.31.73.52.97.82.28.33.56.43.95.27.16-.06.32-.1.49-.13.69-.13 1.01.12 1.01.83 0 .46-.07.93-.11 1.38.46.06.72-.14.92-.49.17-.29.38-.56.61-.8.49-.51 1.12-.73 1.76-.45.79.34 1.53.17 2.3 0-.08-.42-.16-.82-.24-1.23.36-.34.7-.71 1.1-1 .45-.33.97-.57 1.42-.9.44-.32.42-.6.02-.95-.13-.11-.27-.2-.42-.28-.64-.32-1.37-.48-1.89-1.02-.02-.02-.1.01-.21.03-.18.71.47 1.03.76 1.47-.45.16-.89.27-1.26.48-.12.07-.18.41-.13.59.06.24.24.45.44.78l.38-.98c.03.36-.06.68-.11 1.01-.04.27-.05.54-.07.81Zm-8.11-2.4c-.08-.2-.17-.4-.26-.59-.17-.37-.42-.58-.86-.44 0 .1.01.19 0 .27-.02.1-.06.2-.09.29q-1.72-.25-2.31.29c-.23-.49.24-.75.39-1.19-7.34-3.44-14.39-7.48-21.98-10.39.16.25.37.42.57.61.55.52 1.12 1.01 1.64 1.56.67.7 1.02 1.48.33 2.44 6.33 2.24 12.49 4.7 18.35 7.89a.49.49 0 0 1-.32-.02c-6.3-2.19-12.5-4.64-18.62-7.28-.25-.11-.52-.21-.8-.23-1.25-.12-2.51-.21-3.77-.31-.25-.02-.5-.04-.76-.05h-.66c.18.21.36.33.56.42 1.03.5 2.06 1.01 3.1 1.5.63.3 1.17.67 1.23 1.48 2.06.62 4.1 1.25 6.14 1.85 4.76 1.4 9.52 2.78 14.27 4.16.84.24 1.62-.09 2.31-.45.83-.44 1.56-1.08 2.33-1.64.09-.07.15-.18.26-.32q-.34.03-.66.3c-.26.21-.4.15-.43-.18q.41-.21.03-.47v.5Zm40.99-3.57c-.58.04-1.02.05-1.46.11-2.3.33-4.6.68-6.9 1.01-1.63.24-3.28.42-4.9.71-3.86.69-7.71 1.42-11.62 1.75-.72.06-1.43.14-2.22.21l-.15 1.14c1.84.59 3.58 1.12 5.29 1.72 5.6 1.96 11.22 3.86 16.92 5.54l.97.27c-.73-.64-1.5-1.14-2.25-1.67-.66-.47-1.22-1.01-.64-1.96-2.31-.46-4.46-1.12-6.62-1.99.12-.05.16-.08.2-.08.14 0 .28.02.42.03 2.46.24 4.86.76 7.21 1.54.34.11.71.19 1.06.18.73-.02 1.46-.08 2.18-.19.57-.08 1.12-.25 1.69-.39l.02-.2c-.32-.15-.62-.35-.95-.46-.98-.32-1.98-.59-2.97-.91-.34-.11-.7-.25-.95-.49-.23-.22-.44-.3-.73-.34-1.45-.17-2.89-.33-4.34-.52-1.72-.22-3.44-.46-5.16-.68.09-.09.18-.1.26-.09 3.11.08 6.21.34 9.27.94.22.04.45.12.66.09 1-.13 1.99-.27 2.99-.44.33-.06.64-.22 1.13-.39l-1.18-.94c-1-.8-.93-1.37.23-1.87.51-.22 1.03-.43 1.54-.68.37-.18.73-.41 1-1Zm-30.63.8c.5.53.94.98 1.37 1.45.26.29.48.62.76.9.34.34.93.3 1.07-.07.17-.45.38-.91.32-1.39-.59-.07-1.05.56-1.73.08.28-.21.48-.4.71-.52.72-.41 1.45-.82 2.19-1.19 2.28-1.15 4.56-2.29 6.84-3.43 3.91-1.96 7.81-3.92 11.72-5.89.3-.15.58-.33.87-.49-.98.14-1.89.41-2.81.61-.62.14-1.27.24-1.91.22-.84-.02-1.18-.56-.98-1.37.03-.13.07-.25.15-.53-4.21 2.72-8.29 5.35-12.38 7.99l-.12-.15c.22-.19.43-.39.65-.57.91-.7 1.82-1.4 2.74-2.09 2.66-2.02 5.4-3.92 8.33-5.53.62-.34 1.18-.88 1.98-.79.07 0 .15-.07.21-.12l1.95-1.92-.11-.19c-.28.07-.57.12-.84.23-.78.3-1.56.63-2.34.94-.34.13-.68.28-1.03.35-.56.11-.9-.16-1.01-.73-.02-.12-.02-.25-.03-.47-4.46 3.59-8.67 7.3-12.87 11.04.23-.42.51-.79.83-1.11 1.08-1.06 2.17-2.11 3.27-3.15.63-.6 1.29-1.16 1.95-1.73.63-.55 1.27-1.1 1.92-1.64.66-.56 1.33-1.12 2-1.67.65-.53 1.27-1.12 1.97-1.58.69-.46 1.16-1.16 1.96-1.53.49-.22.76-.91 1.12-1.39-.56-.04-1.02.09-1.48.15-1 .14-1.56-.39-1.49-1.39.02-.28.06-.56.11-1.03-.22.25-.31.35-.4.46-1.55 1.92-3.09 3.84-4.64 5.76-.39.48-.78.95-1.18 1.43-.37.45-.75.91-1.12 1.37l-1.17 1.44c-.37.46-.74.91-1.11 1.37l-1.17 1.44c-.39.48-.78.95-1.17 1.43-.37.45-.69.98-1.14 1.35-.46.38-.55.95-.85 1.4-.57.85-1.19 1.61-1.93 2.27Zm12.42 29.16c-3.43-5.47-7-10.77-10.71-15.98-.06.14-.05.24-.04.35.18 1.42.38 2.83.55 4.25.03.23.03.62-.1.7-.44.27-.35.66-.37 1.04-.17 3.61-.32 7.22-.5 10.83-.16 3.19-.36 6.38-.53 9.57-.02.34 0 .68 0 1.02.21-.37.28-.76.35-1.13.33-1.62.65-3.24 1.02-4.85.09-.4.27-.81.51-1.14.39-.54 1.03-.51 1.41.03.19.27.28.6.4.92.1.28.17.56.26.84.2-.26.27-.51.33-.77.18-.85.21-1.77.58-2.52.41-.83.27-1.56.12-2.35-.11-.61-.25-1.21-.37-1.81-.08-.42-.15-.85-.23-1.27.21.17.31.36.37.57.28 1.08.55 2.17.84 3.25.06.22.16.54.33.61.54.21.73.66.95 1.12.12.25.13.59.44.77.2-.56.1-1.01-.14-1.49a24.127 24.127 0 0 1-2.18-7.03c-.06-.39-.07-.79-.11-1.18l.17-.03c1.03 2.32 1.66 4.79 2.58 7.2.85-1.77 1.34-1.32 2.16-.55.47-.61.96-1.22 1.93-.95ZM41.24 47.05l-.13.03c-.11.36-.19.74-.34 1.08-.57 1.28-1.15 2.55-1.74 3.82-3.03 6.56-6.07 13.12-9.1 19.69-.11.23-.19.48-.29.72l.15.07c.18-.28.34-.57.53-.84.71-1.01 1.39-2.03 2.15-3 .49-.63 1.15-1 2.06-.57 1.53-6.34 3.5-12.49 5.99-18.63-.47 6.26-1.58 12.26-2.7 18.28 1.01.14 1.29.75 1.31 1.56.02.76.03 1.51.06 2.27 0 .17.06.34.11.59.76-.77.84-2.1 2.21-2.04.05-.42.1-.78.14-1.14.26-2.11.5-4.23.8-6.33.66-4.69 1.35-9.37 2.01-14.05.03-.2-.04-.43-.13-.62-.13-.3-.31-.58-.49-.92l-.39.46.37.28c-.43.23-.8.5-1.21.65-.74.27-1.26-.1-1.33-.89-.01-.15-.03-.3-.05-.46Zm2.62-16.77c-.32-1.05-.68-2.02-.9-3.03-.65-2.92-1.23-5.86-1.85-8.79-.84-3.92-1.73-7.82-3.04-11.61-.11-.3-.23-.6-.35-.9-.15.32-.14.62-.15.91-.05 1.2-.02 2.41-.19 3.6-.09.63-.12 1.2 0 1.81.88 4.05 1.75 8.1 2.61 12.15.03.16.04.33.06.5-1.61-4.29-2.7-8.7-3.21-13.31-.84.27-1.32-.14-1.71-.7-.44-.65-.85-1.32-1.28-1.97-.16-.25-.34-.49-.51-.73l-.16.06c.06.34.1.68.19 1.01.1.37.31.72.38 1.1 1.36 6.49 4.06 12.5 6.77 18.5.11.25.27.4.55.44 1.2.17 1.68 1 1.84 2.09.16 1.07.69 1.93 1.36 2.74.25.29.56.37.91.28.86-.22 1.72-.46 2.63-.7l-.12-.76h-3.45l-.04-.17 1.35-.57v-1.54l-1.35.13.6 1.23c-.6.14-.89.03-1.16-.41-.35-.56-.12-1.01.22-1.33Zm-6.14 1.85c-2.61-3.66-13.16-16.93-13.78-17.31.18.31.33.58.47.85.72 1.36 1.47 2.71 2.16 4.08.35.7.63 1.45.18 2.31l7.09 7.99c-.71-.44-1.33-.97-1.92-1.52-1.82-1.71-3.63-3.42-5-5.54-.3-.47-.58-.82-1.22-.84-.36-.01-.72-.28-1.06-.48-.7-.41-1.38-.86-2.07-1.29-.18-.11-.36-.2-.54-.3.03.26.13.42.25.56.65.77 1.3 1.54 1.94 2.32.25.3.56.61.65.97.16.66.6 1.07 1.07 1.46 3.28 2.67 6.57 5.33 9.86 7.99.1.08.22.12.39.2.13-.88.76-1.18 1.52-1.44Zm12.79-14.95-.12-.04c-.07.08-.14.15-.2.23-.23.32-.44.65-.69.95-.23.27-.55.39-.91.26-.39-.13-.58-.43-.59-.83 0-.28.02-.56.07-.83.14-.82.29-1.64.44-2.52h-.63c-.58 5.29-1.16 10.53-1.74 15.75 1.34.74 1.4.85 1.1 2.13h.79c.17-.62.41-1.2.48-1.8.44-4.01 1.05-7.99 1.81-11.95.09-.45.14-.9.2-1.36Zm5.91-2.13c-.48.43-.87.77-1.25 1.13-.64.61-1.3 1.17-2.33.97-.82 3.29-1.56 6.55-2.71 9.7-.06-.11-.07-.21-.06-.31.42-2.88 1.02-5.73 1.87-8.52.24-.78.49-1.54.38-2.37-.04-.3.05-.61.09-.92.04-.32.1-.64.15-.96l-.17-.05c-.51.88-1.33 1.59-1.22 2.79.05.49-.02 1.01-.1 1.5-.37 2.41-.74 4.81-1.16 7.21-.24 1.4-.57 2.78-.86 4.17 2.5-4.73 5.11-9.39 7.35-14.35ZM29.27 41.77l.02-.18c-.26-.08-.53-.15-.79-.22-4.6-1.21-9.16-2.57-13.62-4.23-1.45-.54-2.91-.57-4.55-.74.84.76 1.92 1.23 1.6 2.61 5.88.49 11.59 1.74 17.33 2.77Zm4.14-30.76c-.93.31-1.08.26-1.62-.53-.12-.17-.25-.33-.38-.51-.4.52-.36.94-.08 1.48 1.18 2.29 2.37 4.57 3.41 6.92 1.53 3.48 2.94 7.02 4.4 10.53.07.18.17.34.27.54.16-.02.29-.02.43-.05.13-.03.26-.09.44-.16-3.16-5.77-5.72-11.73-6.86-18.22Zm5.85 43.79h-.13c-.09.29-.17.58-.26.87-1.14 3.83-2.28 7.67-3.44 11.5-.27.88-.6 1.73-.41 2.7.07.37-.03.78-.05 1.17-.02.35-.05.7-.08 1.05a.57.57 0 0 0 .33-.29c.52-1.02 1.04-2.04 1.55-3.07.12-.25.21-.52.26-.79.58-3.5 1.15-7.01 1.73-10.52.15-.88.33-1.75.5-2.62Zm-8.62-24.36.11-.14c-.25-.21-.5-.41-.75-.62-1.46-1.23-2.92-2.45-4.38-3.68-.52-.44-.92-1.05-1.74-1.02-.25 0-.51-.21-.76-.33-.4-.19-.8-.4-1.21-.59-.21-.1-.43-.16-.58.23 3.11 2.02 6.16 4.17 9.31 6.15ZM44.86 44.9c-1.23-1.05-2.08-.94-2.65.65l.41.61q-.8-.07-.96.35h.6c-.02.42.04.83.69.82.61-.77 1.24-1.57 1.91-2.42Zm-7.9-7.56c.22 0 .47.05.68-.01.58-.18 1.15-.41 1.72-.62.16-.06.3-.15.56-.28-.67-.34-1.21-.62-1.76-.88-.38-.19-.87-.21-1.08.1-.47.7-1.01 1.41-.85 2.42l1.15.08-.42-.81Zm3.02-1.19.16-.05-.2-1.36c-.63.04-.95-.39-1.31-.79-.35-.39-.74-.73-1.09-1.09q-.58.33-.73.79l3.17 2.5Zm6.72 10.67c-.16-.3-.24-.41-.29-.53-.05-.13-.04-.33-.12-.39-.26-.18-.56-.3-.84-.44-.09.22-.22.42-.26.65-.05.27-.07.56-.02.83.07.44.41.54.78.27l-.46-1.03 1.22.64ZM40.74 30q-.49-.31-1.16 0l.52 1.32.64-1.31Zm6.22 15.05c-.17-1.25-.43-1.4-1.45-.94l1.45.94ZM45.83 32.1l.19.1c.23-.28.64-.45.6-.9-.03-.26-.27-.39-.62-.31l-.17 1.11Zm-4.85 2.59c-.32.79-.27.9.53 1l-.53-1Zm4.04 14.13q.54-.34.16-.79l-.16.79Zm3.26-1.13q-.21-.41-.74-.28l.74.28Z"/>
    <path d="M28.99 54.52c-.54.81-1.03 1.66-1.62 2.42-1.52 1.94-3.09 3.85-4.63 5.77-.3.37-.58.74-.93 1.19.2.03.29.05.39.06.72.1 1 .47.76 1.16-.19.55-.5 1.06-.77 1.58-.14.29-.3.57-.49.91 1.34-.24 1.41-.2 1.6 1.03.14-.21.25-.36.34-.52 4.32-6.91 8.63-13.83 12.98-20.73.38-.61.34-1.06.03-1.55-.56.03-1.07.07-1.59.07-.12 0-.24-.13-.31-.29.61.09 1.12 0 1.62-.26.15-.08.46.08.67.18.54.26 1.05.57 1.57-.05.06-.07.32.04.5.06-.13.6-.54.51-.87.51-.33 0-.65-.07-.97-.1.07.99.25 1.21 1.19 1.45-.53.23-.92-.04-1.33-.41-.12.16-.24.3-.33.46-3.12 5.48-6.18 10.99-9.36 16.43-1.47 2.51-3.18 4.88-4.8 7.3-.17.26-.33.71-.74.49-.35-.19-.08-.55 0-.84.15-.54.33-1.07.48-1.61.07-.25.1-.52.18-.96-.42.31-.68.5-.96.69-.21.14-.42.3-.65.38-.55.2-.99-.13-.92-.7.04-.32.19-.64.33-.94.24-.5.51-.97.67-1.55-.15.1-.3.18-.43.29-.72.58-1.41 1.2-2.15 1.75-.35.27-.76.5-1.17.63-.7.22-1.25-.23-1.18-.97.05-.44.19-.88.38-1.28.38-.78.82-1.53 1.24-2.29.16-.29.31-.57.36-.96-.25.16-.5.3-.74.47-1.5 1.09-2.98 2.19-4.48 3.27-.41.29-.85.53-1.29.77-.32.17-.65.19-.94-.08-.29-.27-.29-.61-.15-.93.12-.27.27-.56.48-.77 6.38-6.39 12.87-12.65 19.71-18.55.92-.8 1.86-1.58 2.82-2.4.25.32.06.59-.12.81-.44.54-.88 1.09-1.38 1.58-2.59 2.52-5.19 5.03-7.81 7.53-2.62 2.5-5.25 4.97-7.88 7.45-.2.19-.44.34-.66.51l.15.18c.42-.28.84-.56 1.27-.84.31-.2.62-.39.94-.56.68-.37 1.36-.58 1.95.17 3.47-3.77 6.9-7.5 10.33-11.22l.17.12c-.14.21-.27.42-.42.62-3.12 4-6.31 7.94-9.99 11.46-.18.17-.35.37-.47.59-.61 1.04-1.21 2.09-1.8 3.13-.09.16-.15.35-.3.69.29-.17.45-.24.58-.35.85-.69 1.69-1.39 2.52-2.09.17-.14.32-.32.43-.51 1.17-2.09 2.7-3.92 4.22-5.75 1.06-1.27 2.19-2.48 3.29-3.71.14-.16.34-.26.51-.39L29 54.5ZM68.24 60.53c.24.56.4.96.6 1.35.32.65.71 1.28.99 1.94.33.77.14 1.12-.64 1.41-.66.25-.85.12-1.1-.55-.12-.32-.33-.64-.59-.88a212.11 212.11 0 0 0-4.18-3.77c-3.99-3.49-7.82-7.14-11.37-11.1-.36-.41-.75-.8-1.12-1.19l.1-.16c.16.04.36.02.48.11.54.4 1.09.8 1.58 1.26 1.8 1.69 3.55 3.42 5.36 5.1 2.71 2.51 5.46 4.99 8.19 7.49.1.09.21.16.49.37-.32-.92-.44-1.68.04-2.43-1.79-1.14-3.56-2.26-5.32-3.38l.1-.2c.26.13.54.25.79.41 1.29.79 2.59 1.57 3.85 2.4.52.34.99.59 1.61.35.12-.05.27-.02.45-.03-.16-.42-.27-.81-.46-1.17-.11-.2-.33-.37-.54-.49-1.78-1.07-3.56-2.12-5.34-3.19-.36-.21-.7-.45-1.03-.73.67.05 1.2.43 1.77.7.61.29 1.2.61 1.79.93.59.33 1.17.67 1.74 1.03.57.35 1.12.73 1.71 1.12.87-.79 1.93-.61 3.1-.57-.23-.2-.34-.34-.48-.44-.58-.4-1.17-.77-1.74-1.19-.27-.2-.52-.43-.71-.7-.37-.52-.25-1 .28-1.36.11-.08.24-.13.35-.18-2.35-.84-4.72-1.63-7.05-2.53-2.32-.9-4.6-1.91-7.08-2.95.33.03.47.02.61.06 3.36.96 6.73 1.93 10.09 2.91 1.56.45 3.1.97 4.67 1.4.94.26 1.91.41 2.87.59.27.05.5.12.56.41.06.34-.13.55-.43.62-.65.15-1.31.29-1.97.4-.5.08-1 .1-1.64.15.21.2.31.34.45.43.71.45 1.44.88 2.14 1.33.3.2.61.41.85.68.59.64.39 1.38-.46 1.6-.45.12-.94.09-1.41.1-.47 0-.93-.04-1.4-.07l-.09.16c.27.28.54.57.82.84.2.2.43.37.63.56.44.42.56.77.36 1.1-.26.45-.69.42-1.12.34-.36-.07-.71-.18-1.06-.25-.29-.06-.59-.08-1.06-.15ZM47.32 42.66c.2.03.4.04.6.08.26.05.51.12.76.19l-.02-.02c.1.64.61.49 1.03.53v-.03c-.51.38-.98.27-1.44-.07-.31-.23-.62-.45-.93-.68ZM49.06 46.18q.48.76-.08 1.15l.08-1.15Z"/>
    <path d="m29.01 54.54.24-.46.13.09-.38.35.02.02ZM40.77 40.89c.09.58.28.97.82 1.18.28.11.41.38.26.69-.16.32-.45.38-.78.28-.57-.17-.93-.82-.73-1.39.1-.27.28-.51.43-.76Z"/>
  </g>
</svg>
